<svg width="1500" viewBox="0 0 680 240" role="img" xmlns="http://www.w3.org/2000/svg">
  <title>GitHub Profile Banner — Mahedi H Sharif</title>
  <desc>Dark themed GitHub banner for Full-Stack Engineer Mahedi H Sharif</desc>

  <defs>
    <linearGradient id="bg" x1="0%" y1="0%" x2="100%" y2="100%">
      <stop offset="0%" style="stop-color:#0d0d0d"/>
      <stop offset="100%" style="stop-color:#1a0a2e"/>
    </linearGradient>
    <linearGradient id="accent" x1="0%" y1="0%" x2="100%" y2="0%">
      <stop offset="0%" style="stop-color:#7c3aed"/>
      <stop offset="100%" style="stop-color:#a855f7"/>
    </linearGradient>
  </defs>

  <rect width="680" height="240" fill="url(#bg)" rx="12"/>

  <circle cx="580" cy="40" r="120" fill="#7c3aed" opacity="0.08"/>
  <circle cx="100" cy="200" r="90" fill="#a855f7" opacity="0.06"/>
  <circle cx="340" cy="120" r="150" fill="#6d28d9" opacity="0.04"/>

  <line x1="0" y1="1" x2="680" y2="1" stroke="url(#accent)" stroke-width="2" opacity="0.6"/>
  <line x1="0" y1="239" x2="680" y2="239" stroke="url(#accent)" stroke-width="2" opacity="0.6"/>

  <rect x="40" y="72" width="4" height="48" fill="url(#accent)" rx="2"/>

  <text x="58" y="100" font-family="monospace" font-size="13" fill="#a855f7" opacity="0.7">&lt;code&gt;</text>

  <text x="58" y="130" font-family="Arial, sans-serif" font-size="36" font-weight="700" fill="#ffffff" letter-spacing="1">Mahedi H Sharif</text>

  <text x="58" y="158" font-family="monospace" font-size="13" fill="#a855f7" opacity="0.7">&lt;/code&gt;</text>

  <text x="58" y="182" font-family="Arial, sans-serif" font-size="14" fill="#c4b5fd" letter-spacing="0.5">Full-Stack Engineer  ·  TypeScript  ·  React  ·  Next.js  ·  Node.js</text>

  <rect x="40" y="200" width="280" height="1" fill="url(#accent)" opacity="0.3"/>

  <text x="40" y="220" font-family="Arial, sans-serif" font-size="12" fill="#7c3aed" opacity="0.8">{ passion: "AI · System Design · Clean Code" }</text>

  <g opacity="0.15">
    <line x1="500" y1="40" x2="640" y2="40" stroke="#6d23ee" stroke-width="0.5"/>
    <line x1="500" y1="60" x2="640" y2="60" stroke="#6d23ee" stroke-width="0.5"/>
    <line x1="500" y1="80" x2="640" y2="80" stroke="#6d23ee" stroke-width="0.5"/>
    <line x1="500" y1="100" x2="640" y2="100" stroke="#6d23ee" stroke-width="0.5"/>
    <line x1="500" y1="40" x2="500" y2="100" stroke="#6d23ee" stroke-width="0.5"/>
    <line x1="520" y1="40" x2="520" y2="100" stroke="#6d23ee" stroke-width="0.5"/>
    <line x1="540" y1="40" x2="540" y2="100" stroke="#6d23ee" stroke-width="0.5"/>
    <line x1="560" y1="40" x2="560" y2="100" stroke="#6d23ee" stroke-width="0.5"/>
    <line x1="580" y1="40" x2="580" y2="100" stroke="#6d23ee" stroke-width="0.5"/>
    <line x1="600" y1="40" x2="600" y2="100" stroke="#6d23ee" stroke-width="0.5"/>
    <line x1="620" y1="40" x2="620" y2="100" stroke="#6d23ee" stroke-width="0.5"/>
    <line x1="640" y1="40" x2="640" y2="100" stroke="#6d23ee" stroke-width="0.5"/>
  </g>

  <rect x="490" y="130" width="90" height="28" rx="14" fill="#6d23ee" opacity="0.15" stroke="#6d23ee" stroke-width="0.5"/>
  <text x="535" y="149" font-family="Arial, sans-serif" font-size="12" fill="#c4b5fd" text-anchor="middle">PostgreSQL</text>

  <rect x="590" y="130" width="70" height="28" rx="14" fill="#6d23ee" opacity="0.15" stroke="#7c6d23ee3aed" stroke-width="0.5"/>
  <text x="625" y="149" font-family="Arial, sans-serif" font-size="12" fill="#c4b5fd" text-anchor="middle">MongoDB</text>

  <rect x="530" y="168" width="50" height="28" rx="14" fill="#6d23ee" opacity="0.15" stroke="#7c3aed" stroke-width="0.5"/>
  <text x="555" y="187" font-family="Arial, sans-serif" font-size="12" fill="#c4b5fd" text-anchor="middle">AI</text>

  <rect x="590" y="168" width="70" height="28" rx="14" fill="#7c3aed" opacity="0.15" stroke="#6d23ee" stroke-width="0.5"/>
  <text x="625" y="187" font-family="Arial, sans-serif" font-size="12" fill="#c4b5fd" text-anchor="middle">Node.js</text>
</svg>
